<svg width="16" height="17" viewBox="0 0 16 17" fill="none" xmlns="http://www.w3.org/2000/svg">
<g id="call 1" clip-path="url(#clip0_8394_201987)">
<g id="Group">
<g id="Group_2">
<g id="Group_3">
<path id="Vector" d="M15.6889 13.4394L13.9151 12.2568L12.3383 11.2057C12.034 11.0033 11.625 11.0696 11.4004 11.358L10.4246 12.6123C10.2151 12.8845 9.83803 12.9627 9.53747 12.7963C8.87541 12.4281 8.09251 12.0813 6.3651 10.3517C4.63768 8.62205 4.28872 7.84137 3.92044 7.17932C3.75403 6.87876 3.83225 6.50173 4.10444 6.29217L5.35877 5.31646C5.64711 5.09184 5.71351 4.68288 5.51105 4.37854L4.49231 2.85027L3.27742 1.02792C3.07064 0.717735 2.6567 0.624611 2.33702 0.816328L0.935911 1.65688C0.55726 1.87997 0.278919 2.24022 0.158545 2.66293C-0.224606 4.05988 -0.301855 7.1415 4.63684 12.0802C9.57553 17.0189 12.6569 16.9414 14.0538 16.5582C14.4765 16.4379 14.8368 16.1595 15.0599 15.7808L15.9004 14.3798C16.0922 14.06 15.999 13.6461 15.6889 13.4394Z" fill="#2A2A86"/>
</g>
</g>
</g>
</g>
<defs>
<clipPath id="clip0_8394_201987">
<rect width="16" height="16" fill="white" transform="translate(0 0.716797)"/>
</clipPath>
</defs>
</svg>
