<svg width="24" height="25" viewBox="0 0 24 25" fill="none" xmlns="http://www.w3.org/2000/svg">
<path d="M2.76854 7.54718L2.76858 7.54619C2.86665 5.41545 4.54931 3.73006 6.69359 3.6226C6.69376 3.6226 6.69392 3.62259 6.69408 3.62258L11.6907 3.38274C13.1062 3.32856 14.4884 3.84962 15.4856 4.84676L20.0156 9.37676C21.9703 11.3315 21.9703 14.5249 20.0156 16.4796L15.6272 20.868C15.6269 20.8683 15.6266 20.8686 15.6263 20.8689C14.6433 21.8424 13.3615 22.3332 12.0691 22.3332C10.7854 22.3332 9.49454 21.8415 8.52267 20.8696L3.99267 16.3396C2.99354 15.3405 2.46502 13.9579 2.52857 12.5465C2.52858 12.5462 2.52859 12.546 2.5286 12.5458L2.76854 7.54718ZM3.25972 7.55854L3.25969 7.55923L3.01968 12.5592L3.0196 12.5611C2.96342 13.8309 3.4461 15.0773 4.34556 15.9768L8.87556 20.5068C9.72873 21.3599 10.8657 21.8332 12.0691 21.8332C13.2726 21.8332 14.4095 21.3599 15.2627 20.5068L19.6527 16.1168C20.5058 15.2636 20.9791 14.1267 20.9791 12.9232C20.9791 11.7198 20.5058 10.5828 19.6527 9.72965L15.1227 5.19965C14.2241 4.30112 12.9771 3.81658 11.7138 3.88384C11.7133 3.88387 11.7128 3.88389 11.7124 3.88392L6.71766 4.12366C6.71723 4.12368 6.7168 4.1237 6.71637 4.12372C4.82816 4.20545 3.3524 5.68176 3.25972 7.55854Z" fill="#6E87AA" stroke="#6E87AA"/>
<path d="M9.5 13.1035C7.98614 13.1035 6.75 11.8674 6.75 10.3535C6.75 8.83966 7.98614 7.60352 9.5 7.60352C11.0139 7.60352 12.25 8.83966 12.25 10.3535C12.25 11.8674 11.0139 13.1035 9.5 13.1035ZM9.5 8.10352C8.26386 8.10352 7.25 9.11737 7.25 10.3535C7.25 11.5897 8.26386 12.6035 9.5 12.6035C10.7361 12.6035 11.75 11.5897 11.75 10.3535C11.75 9.11737 10.7361 8.10352 9.5 8.10352Z" fill="white" stroke="#6E87AA"/>
</svg>
