<svg width="24" height="25" viewBox="0 0 24 25" fill="none" xmlns="http://www.w3.org/2000/svg">
<path d="M15.4897 21.1139C15.4251 21.1139 15.3645 21.0917 15.3132 21.0404C15.2185 20.9457 15.2185 20.7822 15.3132 20.6875L20.3232 15.6775C20.418 15.5828 20.5814 15.5828 20.6761 15.6775C20.7709 15.7722 20.7709 15.9357 20.6761 16.0304L15.6735 21.0331C15.6072 21.0928 15.5383 21.1139 15.4897 21.1139Z" fill="#6E87AA" stroke="#6E87AA"/>
<path d="M20.5 16.0938H3.5C3.36614 16.0938 3.25 15.9776 3.25 15.8438C3.25 15.7099 3.36614 15.5938 3.5 15.5938H20.5C20.6339 15.5938 20.75 15.7099 20.75 15.8438C20.75 15.9776 20.6339 16.0938 20.5 16.0938Z" fill="#6E87AA" stroke="#6E87AA"/>
<path d="M3.4975 10.6139C3.3075 10.6139 3.1175 10.5439 2.9675 10.3939C2.6775 10.1039 2.6775 9.62394 2.9675 9.33394L7.9775 4.32395C8.2675 4.03395 8.7475 4.03395 9.0375 4.32395C9.3275 4.61395 9.3275 5.09395 9.0375 5.38395L4.0275 10.3939C3.8875 10.5339 3.6875 10.6139 3.4975 10.6139Z" fill="#6E87AA"/>
<path d="M20.5 10.6133H3.5C3.09 10.6133 2.75 10.2733 2.75 9.86328C2.75 9.45328 3.09 9.11328 3.5 9.11328H20.5C20.91 9.11328 21.25 9.45328 21.25 9.86328C21.25 10.2733 20.91 10.6133 20.5 10.6133Z" fill="#6E87AA"/>
</svg>
