<svg width="24" height="25" viewBox="0 0 24 25" fill="none" xmlns="http://www.w3.org/2000/svg">
<path d="M12 23.1035C7.03614 23.1035 3 19.0674 3 14.1035C3 9.13966 7.03614 5.10352 12 5.10352C16.9639 5.10352 21 9.13966 21 14.1035C21 19.0674 16.9639 23.1035 12 23.1035ZM12 5.60352C7.31386 5.60352 3.5 9.41737 3.5 14.1035C3.5 18.7897 7.31386 22.6035 12 22.6035C16.6861 22.6035 20.5 18.7897 20.5 14.1035C20.5 9.41737 16.6861 5.60352 12 5.60352Z" fill="#6E87AA" stroke="#6E87AA"/>
<path d="M12 14.1035C11.8661 14.1035 11.75 13.9874 11.75 13.8535V8.85352C11.75 8.71966 11.8661 8.60352 12 8.60352C12.1339 8.60352 12.25 8.71966 12.25 8.85352V13.8535C12.25 13.9874 12.1339 14.1035 12 14.1035Z" fill="#6E87AA" stroke="#6E87AA"/>
<path d="M15 3.60352H9C8.59 3.60352 8.25 3.26352 8.25 2.85352C8.25 2.44352 8.59 2.10352 9 2.10352H15C15.41 2.10352 15.75 2.44352 15.75 2.85352C15.75 3.26352 15.41 3.60352 15 3.60352Z" fill="#6E87AA"/>
</svg>
