<svg width="24" height="25" viewBox="0 0 24 25" fill="none" xmlns="http://www.w3.org/2000/svg">
<path d="M4.97754 19.0533L4.97731 19.0531C4.48458 18.6857 4.0223 18.0963 3.68284 17.4197C3.34333 16.743 3.14844 16.0225 3.14844 15.4139V7.97395C3.14844 6.6414 4.14993 5.18914 5.40294 4.72251L5.4039 4.72215L10.3935 2.8523C10.3936 2.85227 10.3936 2.85224 10.3937 2.85222C10.8172 2.69399 11.3917 2.60645 11.9884 2.60645C12.5852 2.60645 13.1597 2.69399 13.5832 2.85222C13.5832 2.85224 13.5833 2.85227 13.5834 2.8523L18.573 4.72215L18.5739 4.72251C19.8269 5.18914 20.8284 6.6414 20.8284 7.97395V15.4039C20.8284 16.0178 20.6334 16.7383 20.2942 17.4132C19.955 18.088 19.4928 18.6753 18.9996 19.0431L18.9993 19.0433L14.6993 22.2533L14.6993 22.2532L14.6931 22.258C13.9637 22.8204 12.9958 23.1139 11.9984 23.1139C11.0025 23.1139 10.0303 22.821 9.27664 22.2626C9.27648 22.2625 9.27632 22.2624 9.27616 22.2622L4.97754 19.0533ZM10.5736 3.32549L10.573 3.32574L5.58298 5.19574L5.58227 5.19601C5.03802 5.4009 4.56346 5.82985 4.22837 6.31465C3.89311 6.79971 3.65844 7.39713 3.65844 7.98395V15.4139C3.65844 15.9917 3.85736 16.6399 4.14019 17.2042C4.4229 17.7683 4.82172 18.3129 5.27929 18.6546L5.27933 18.6546L9.57899 21.8644C10.2577 22.3719 11.1417 22.6089 11.9997 22.6089C12.8579 22.6089 13.7434 22.3718 14.4262 21.8656L14.4275 21.8646L18.7275 18.6546L18.7284 18.6539C19.1899 18.3079 19.5887 17.764 19.8707 17.2001C20.1527 16.6361 20.3484 15.9907 20.3484 15.4139V7.97395C20.3484 7.39111 20.113 6.79613 19.7785 6.31215C19.4438 5.82794 18.9707 5.39801 18.4294 5.18784L18.4294 5.18781L18.4239 5.18574L13.4339 3.31574L13.4339 3.31566L13.4248 3.31245C13.0134 3.16722 12.492 3.10385 11.9983 3.1052C11.5055 3.10654 10.9836 3.17252 10.5736 3.32549Z" fill="#6E87AA" stroke="#6E87AA"/>
<path d="M10.3086 13.6272L10.6622 13.9807L11.0157 13.6272L14.7857 9.85719C14.8805 9.76245 15.0439 9.76245 15.1386 9.85719C15.2334 9.95192 15.2334 10.1153 15.1386 10.2101L10.8386 14.5101C10.7873 14.5614 10.7267 14.5836 10.6622 14.5836C10.5976 14.5836 10.537 14.5614 10.4857 14.5101L8.87574 12.9001C8.781 12.8053 8.781 12.6419 8.87574 12.5472C8.97048 12.4524 9.1339 12.4524 9.22863 12.5472L10.3086 13.6272Z" fill="white" stroke="#6E87AA"/>
</svg>
