<svg width="24" height="25" viewBox="0 0 24 25" fill="none" xmlns="http://www.w3.org/2000/svg">
<path d="M14.7517 3.60352V3.10352H14.2517H6.00173C4.63847 3.10352 3.39328 3.84322 2.72603 5.02817L2.72602 5.02816L2.72463 5.03068C2.65952 5.14787 2.5046 5.19314 2.38457 5.12646C2.26758 5.06147 2.22224 4.90687 2.28847 4.78691C3.04094 3.44398 4.46462 2.60352 6.00173 2.60352H15.0017C15.1356 2.60352 15.2517 2.71966 15.2517 2.85352V12.8535C15.2517 14.0974 14.2456 15.1035 13.0017 15.1035H12.0017C11.8679 15.1035 11.7517 14.9874 11.7517 14.8535C11.7517 14.7197 11.8679 14.6035 12.0017 14.6035H13.0017C13.9679 14.6035 14.7517 13.8197 14.7517 12.8535V3.60352Z" fill="#6E87AA" stroke="#6E87AA"/>
<path d="M5.34998 20.6035H5.72668L5.83058 20.2414C6.10123 19.2982 6.97079 18.6035 8 18.6035C9.02921 18.6035 9.89877 19.2982 10.1694 20.2414L10.2733 20.6035H10.65H13.36H13.7367L13.8406 20.2414C14.1112 19.2982 14.9808 18.6035 16.01 18.6035C17.0392 18.6035 17.9087 19.2982 18.1794 20.2414L18.2833 20.6035H18.66H19C20.5161 20.6035 21.75 19.3697 21.75 17.8535V15.6035V15.1035H21.25H19C18.3161 15.1035 17.75 14.5374 17.75 13.8535V10.8535C17.75 10.1678 18.308 9.60352 19 9.60352H19.8622L19.434 8.85519L18.3655 6.98786C18.3652 6.98741 18.365 6.98696 18.3647 6.98651C18.0537 6.43625 17.4654 6.10352 16.84 6.10352H15.75H15.25V6.60352V12.8535C15.25 14.0974 14.2439 15.1035 13 15.1035H12C11.8661 15.1035 11.75 14.9874 11.75 14.8535C11.75 14.7197 11.8661 14.6035 12 14.6035H13C13.9661 14.6035 14.75 13.8197 14.75 12.8535V5.85352C14.75 5.71966 14.8661 5.60352 15 5.60352H16.84C17.65 5.60352 18.3943 6.03681 18.7955 6.74106L18.7959 6.74176L20.5047 9.72955C20.5049 9.72983 20.505 9.73011 20.5052 9.73039C20.5484 9.80762 20.5483 9.91044 20.5047 9.98749C20.4682 10.0521 20.3896 10.1035 20.29 10.1035H19C18.5839 10.1035 18.25 10.4374 18.25 10.8535V13.8535C18.25 14.2697 18.5839 14.6035 19 14.6035H22C22.1339 14.6035 22.25 14.7197 22.25 14.8535V17.8535C22.25 19.6474 20.7939 21.1035 19 21.1035H18C17.8661 21.1035 17.75 20.9874 17.75 20.8535C17.75 19.8874 16.9661 19.1035 16 19.1035C15.0339 19.1035 14.25 19.8874 14.25 20.8535C14.25 20.9874 14.1339 21.1035 14 21.1035H10C9.86614 21.1035 9.75 20.9874 9.75 20.8535C9.75 19.8874 8.96614 19.1035 8 19.1035C7.03386 19.1035 6.25 19.8874 6.25 20.8535C6.25 20.9874 6.13386 21.1035 6 21.1035H5C3.20614 21.1035 1.75 19.6474 1.75 17.8535C1.75 17.7197 1.86614 17.6035 2 17.6035C2.13386 17.6035 2.25 17.7197 2.25 17.8535C2.25 19.3697 3.48386 20.6035 5 20.6035H5.34998Z" fill="#6E87AA" stroke="#6E87AA"/>
<path d="M8 23.6035C6.48 23.6035 5.25 22.3735 5.25 20.8535C5.25 19.3335 6.48 18.1035 8 18.1035C9.52 18.1035 10.75 19.3335 10.75 20.8535C10.75 22.3735 9.52 23.6035 8 23.6035ZM8 19.6035C7.31 19.6035 6.75 20.1635 6.75 20.8535C6.75 21.5435 7.31 22.1035 8 22.1035C8.69 22.1035 9.25 21.5435 9.25 20.8535C9.25 20.1635 8.69 19.6035 8 19.6035Z" fill="#6E87AA"/>
<path d="M16 23.6035C14.48 23.6035 13.25 22.3735 13.25 20.8535C13.25 19.3335 14.48 18.1035 16 18.1035C17.52 18.1035 18.75 19.3335 18.75 20.8535C18.75 22.3735 17.52 23.6035 16 23.6035ZM16 19.6035C15.31 19.6035 14.75 20.1635 14.75 20.8535C14.75 21.5435 15.31 22.1035 16 22.1035C16.69 22.1035 17.25 21.5435 17.25 20.8535C17.25 20.1635 16.69 19.6035 16 19.6035Z" fill="#6E87AA"/>
<path d="M22 15.6035H19C18.04 15.6035 17.25 14.8135 17.25 13.8535V10.8535C17.25 9.89352 18.04 9.10352 19 9.10352H20.29C20.56 9.10352 20.81 9.24352 20.94 9.48352L22.65 12.4835C22.71 12.5935 22.75 12.7235 22.75 12.8535V14.8535C22.75 15.2635 22.41 15.6035 22 15.6035ZM19 10.6035C18.86 10.6035 18.75 10.7135 18.75 10.8535V13.8535C18.75 13.9935 18.86 14.1035 19 14.1035H21.25V13.0535L19.85 10.6035H19Z" fill="#6E87AA"/>
<path d="M8 9.60352H2C1.59 9.60352 1.25 9.26352 1.25 8.85352C1.25 8.44352 1.59 8.10352 2 8.10352H8C8.41 8.10352 8.75 8.44352 8.75 8.85352C8.75 9.26352 8.41 9.60352 8 9.60352Z" fill="#6E87AA"/>
<path d="M6 12.6035H2C1.59 12.6035 1.25 12.2635 1.25 11.8535C1.25 11.4435 1.59 11.1035 2 11.1035H6C6.41 11.1035 6.75 11.4435 6.75 11.8535C6.75 12.2635 6.41 12.6035 6 12.6035Z" fill="#6E87AA"/>
<path d="M4 15.6035H2C1.59 15.6035 1.25 15.2635 1.25 14.8535C1.25 14.4435 1.59 14.1035 2 14.1035H4C4.41 14.1035 4.75 14.4435 4.75 14.8535C4.75 15.2635 4.41 15.6035 4 15.6035Z" fill="#6E87AA"/>
</svg>
