<svg width="42" height="42" viewBox="0 0 42 42" fill="none" xmlns="http://www.w3.org/2000/svg">
<path fill-rule="evenodd" clip-rule="evenodd" d="M29.7071 13.7071C30.0976 13.3166 30.0976 12.6834 29.7071 12.2929C29.3166 11.9024 28.6834 11.9024 28.2929 12.2929L21 19.5858L13.7071 12.2929C13.3166 11.9024 12.6834 11.9024 12.2929 12.2929C11.9024 12.6834 11.9024 13.3166 12.2929 13.7071L19.5858 21L12.2929 28.2929C11.9024 28.6834 11.9024 29.3166 12.2929 29.7071C12.6834 30.0976 13.3166 30.0976 13.7071 29.7071L21 22.4142L28.2929 29.7071C28.6834 30.0976 29.3166 30.0976 29.7071 29.7071C30.0976 29.3166 30.0976 28.6834 29.7071 28.2929L22.4142 21L29.7071 13.7071Z" fill="#170F49"/>
</svg>
